<svg width="1000" height="280" viewBox="0 0 1000 280" fill="none" xmlns="http://www.w3.org/2000/svg">
<path d="M0 40C0 17.9086 17.9086 0 40 0H1000V240C1000 262.091 982.091 280 960 280H0V40Z" fill="#FF0000"/>
<mask id="path-2-outside-1_35_4" maskUnits="userSpaceOnUse" x="118" y="85" width="772" height="137" fill="black">
<rect fill="white" x="118" y="85" width="772" height="137"/>
<path d="M192.383 114.146H148.701V135.064H183.223V152.496H148.701V189H126.006V95.6895H192.383V114.146ZM223.076 119.957V189H202.705V119.957H223.076ZM223.076 93.7754V114.146H202.705V93.7754H223.076ZM308.867 121.529C306.725 121.074 304.925 120.846 303.467 120.846C298.955 120.846 296.312 122.851 295.537 126.861C299.229 130.735 301.074 135.11 301.074 139.986C301.074 146.503 298.34 151.699 292.871 155.572C287.448 159.446 279.609 161.383 269.355 161.383C265.71 161.383 262.155 161.041 258.691 160.357C256.367 161.725 255.205 163.479 255.205 165.621C255.205 167.991 256.185 169.563 258.145 170.338C260.104 171.113 264.821 171.682 272.295 172.047C282.913 172.594 290.228 173.255 294.238 174.029C298.249 174.804 301.621 176.673 304.355 179.635C307.09 182.597 308.457 186.288 308.457 190.709C308.457 197.044 305.518 202.398 299.639 206.773C293.805 211.148 283.438 213.336 268.535 213.336C254.544 213.336 245.111 211.809 240.234 208.756C235.358 205.748 232.92 201.92 232.92 197.271C232.92 191.119 236.862 186.972 244.746 184.83C238.913 181.913 235.996 177.812 235.996 172.525C235.996 165.917 240.599 160.768 249.805 157.076C241.647 153.704 237.568 148.076 237.568 140.191C237.568 133.766 240.371 128.548 245.977 124.537C251.628 120.527 259.421 118.521 269.355 118.521C275.645 118.521 281.729 119.524 287.607 121.529C288.018 117.61 289.157 114.397 291.025 111.891C292.939 109.339 296.973 108.062 303.125 108.062C305.13 108.062 307.044 108.245 308.867 108.609V121.529ZM269.219 129.527C265.71 129.527 262.952 130.484 260.947 132.398C258.988 134.267 258.008 136.751 258.008 139.85C258.008 146.868 261.768 150.377 269.287 150.377C272.933 150.377 275.781 149.352 277.832 147.301C279.928 145.25 280.977 142.766 280.977 139.85C280.977 137.115 279.997 134.723 278.037 132.672C276.077 130.576 273.138 129.527 269.219 129.527ZM255.615 188.521C254.795 188.521 253.747 189.068 252.471 190.162C251.24 191.256 250.625 192.577 250.625 194.127C250.625 197.226 252.607 199.163 256.572 199.938C260.537 200.712 265.186 201.1 270.518 201.1C277.49 201.1 282.367 200.576 285.146 199.527C287.972 198.479 289.385 196.793 289.385 194.469C289.385 192.691 288.2 191.324 285.83 190.367C283.506 189.41 277.262 188.932 267.1 188.932L262.998 189C260.492 189 258.805 188.932 257.939 188.795C256.982 188.613 256.208 188.521 255.615 188.521ZM376.406 119.957V189H357.539V177.242C353.984 186.038 347.194 190.436 337.168 190.436C331.973 190.436 327.985 189.479 325.205 187.564C322.425 185.605 320.42 182.962 319.189 179.635C318.005 176.262 317.412 171.409 317.412 165.074V119.957H337.168V165.074C337.168 171.272 339.72 174.371 344.824 174.371C347.422 174.371 349.678 173.642 351.592 172.184C353.506 170.68 354.714 169.085 355.215 167.398C355.762 165.712 356.035 162.818 356.035 158.717V119.957H376.406ZM413.047 189H393.291V119.957H411.953V132.809C414.824 123.238 419.792 118.453 426.855 118.453C427.858 118.453 429.089 118.521 430.547 118.658V138.756C426.4 138.756 423.164 139.394 420.84 140.67C418.561 141.946 416.693 144.247 415.234 147.574C413.776 150.855 413.047 155.299 413.047 160.904V189ZM503.965 157.896H459.531C459.486 159.127 459.463 160.198 459.463 161.109C459.463 166.031 460.762 169.745 463.359 172.252C466.003 174.758 469.147 176.012 472.793 176.012C479.583 176.012 483.662 172.389 485.029 165.143L503.486 166.51C498.337 182.46 487.878 190.436 472.109 190.436C465.228 190.436 459.372 189.068 454.541 186.334C449.756 183.554 445.791 179.521 442.646 174.234C439.548 168.948 437.998 162.613 437.998 155.23C437.998 144.247 441.12 135.383 447.363 128.639C453.652 121.894 461.719 118.521 471.562 118.521C480.449 118.521 488.06 121.666 494.395 127.955C500.775 134.199 503.965 144.179 503.965 157.896ZM459.463 146.07H484.004C483.366 136.591 479.469 131.852 472.314 131.852C464.658 131.852 460.374 136.591 459.463 146.07ZM622.158 95.6895L594.062 189H570.547L542.52 95.6895H565.762L584.424 162.408L603.77 95.6895H622.158ZM687.715 157.896H643.281C643.236 159.127 643.213 160.198 643.213 161.109C643.213 166.031 644.512 169.745 647.109 172.252C649.753 174.758 652.897 176.012 656.543 176.012C663.333 176.012 667.412 172.389 668.779 165.143L687.236 166.51C682.087 182.46 671.628 190.436 655.859 190.436C648.978 190.436 643.122 189.068 638.291 186.334C633.506 183.554 629.541 179.521 626.396 174.234C623.298 168.948 621.748 162.613 621.748 155.23C621.748 144.247 624.87 135.383 631.113 128.639C637.402 121.894 645.469 118.521 655.312 118.521C664.199 118.521 671.81 121.666 678.145 127.955C684.525 134.199 687.715 144.179 687.715 157.896ZM643.213 146.07H667.754C667.116 136.591 663.219 131.852 656.064 131.852C648.408 131.852 644.124 136.591 643.213 146.07ZM720.391 189H700.635V119.957H719.297V132.809C722.168 123.238 727.135 118.453 734.199 118.453C735.202 118.453 736.432 118.521 737.891 118.658V138.756C733.743 138.756 730.508 139.394 728.184 140.67C725.905 141.946 724.036 144.247 722.578 147.574C721.12 150.855 720.391 155.299 720.391 160.904V189ZM802.217 136.637L787.383 140.602C785.651 134.358 781.162 131.236 773.916 131.236C767.08 131.236 763.662 133.31 763.662 137.457C763.662 139.098 764.277 140.419 765.508 141.422C766.784 142.379 770.065 143.199 775.352 143.883C783.236 144.931 789.069 146.139 792.852 147.506C796.634 148.873 799.619 151.174 801.807 154.41C804.04 157.646 805.156 161.633 805.156 166.373C805.156 173.482 802.445 179.27 797.021 183.736C791.644 188.202 784.102 190.436 774.395 190.436C756.803 190.436 746.299 183.622 742.881 169.996L760.039 167.467C761.452 173.665 766.556 176.764 775.352 176.764C778.724 176.764 781.572 176.171 783.896 174.986C786.221 173.756 787.383 172.115 787.383 170.064C787.383 166.874 784.808 164.983 779.658 164.391C765.713 162.659 756.53 159.993 752.109 156.393C747.734 152.747 745.547 147.688 745.547 141.217C745.547 134.654 748.099 129.231 753.203 124.947C758.307 120.663 765.462 118.521 774.668 118.521C781.96 118.521 787.793 119.957 792.168 122.828C796.543 125.699 799.893 130.302 802.217 136.637ZM878.848 157.896H834.414C834.368 159.127 834.346 160.198 834.346 161.109C834.346 166.031 835.645 169.745 838.242 172.252C840.885 174.758 844.03 176.012 847.676 176.012C854.466 176.012 858.545 172.389 859.912 165.143L878.369 166.51C873.219 182.46 862.76 190.436 846.992 190.436C840.111 190.436 834.255 189.068 829.424 186.334C824.639 183.554 820.674 179.521 817.529 174.234C814.43 168.948 812.881 162.613 812.881 155.23C812.881 144.247 816.003 135.383 822.246 128.639C828.535 121.894 836.602 118.521 846.445 118.521C855.332 118.521 862.943 121.666 869.277 127.955C875.658 134.199 878.848 144.179 878.848 157.896ZM834.346 146.07H858.887C858.249 136.591 854.352 131.852 847.197 131.852C839.541 131.852 835.257 136.591 834.346 146.07Z"/>
</mask>
<path d="M192.383 114.146H148.701V135.064H183.223V152.496H148.701V189H126.006V95.6895H192.383V114.146ZM223.076 119.957V189H202.705V119.957H223.076ZM223.076 93.7754V114.146H202.705V93.7754H223.076ZM308.867 121.529C306.725 121.074 304.925 120.846 303.467 120.846C298.955 120.846 296.312 122.851 295.537 126.861C299.229 130.735 301.074 135.11 301.074 139.986C301.074 146.503 298.34 151.699 292.871 155.572C287.448 159.446 279.609 161.383 269.355 161.383C265.71 161.383 262.155 161.041 258.691 160.357C256.367 161.725 255.205 163.479 255.205 165.621C255.205 167.991 256.185 169.563 258.145 170.338C260.104 171.113 264.821 171.682 272.295 172.047C282.913 172.594 290.228 173.255 294.238 174.029C298.249 174.804 301.621 176.673 304.355 179.635C307.09 182.597 308.457 186.288 308.457 190.709C308.457 197.044 305.518 202.398 299.639 206.773C293.805 211.148 283.438 213.336 268.535 213.336C254.544 213.336 245.111 211.809 240.234 208.756C235.358 205.748 232.92 201.92 232.92 197.271C232.92 191.119 236.862 186.972 244.746 184.83C238.913 181.913 235.996 177.812 235.996 172.525C235.996 165.917 240.599 160.768 249.805 157.076C241.647 153.704 237.568 148.076 237.568 140.191C237.568 133.766 240.371 128.548 245.977 124.537C251.628 120.527 259.421 118.521 269.355 118.521C275.645 118.521 281.729 119.524 287.607 121.529C288.018 117.61 289.157 114.397 291.025 111.891C292.939 109.339 296.973 108.062 303.125 108.062C305.13 108.062 307.044 108.245 308.867 108.609V121.529ZM269.219 129.527C265.71 129.527 262.952 130.484 260.947 132.398C258.988 134.267 258.008 136.751 258.008 139.85C258.008 146.868 261.768 150.377 269.287 150.377C272.933 150.377 275.781 149.352 277.832 147.301C279.928 145.25 280.977 142.766 280.977 139.85C280.977 137.115 279.997 134.723 278.037 132.672C276.077 130.576 273.138 129.527 269.219 129.527ZM255.615 188.521C254.795 188.521 253.747 189.068 252.471 190.162C251.24 191.256 250.625 192.577 250.625 194.127C250.625 197.226 252.607 199.163 256.572 199.938C260.537 200.712 265.186 201.1 270.518 201.1C277.49 201.1 282.367 200.576 285.146 199.527C287.972 198.479 289.385 196.793 289.385 194.469C289.385 192.691 288.2 191.324 285.83 190.367C283.506 189.41 277.262 188.932 267.1 188.932L262.998 189C260.492 189 258.805 188.932 257.939 188.795C256.982 188.613 256.208 188.521 255.615 188.521ZM376.406 119.957V189H357.539V177.242C353.984 186.038 347.194 190.436 337.168 190.436C331.973 190.436 327.985 189.479 325.205 187.564C322.425 185.605 320.42 182.962 319.189 179.635C318.005 176.262 317.412 171.409 317.412 165.074V119.957H337.168V165.074C337.168 171.272 339.72 174.371 344.824 174.371C347.422 174.371 349.678 173.642 351.592 172.184C353.506 170.68 354.714 169.085 355.215 167.398C355.762 165.712 356.035 162.818 356.035 158.717V119.957H376.406ZM413.047 189H393.291V119.957H411.953V132.809C414.824 123.238 419.792 118.453 426.855 118.453C427.858 118.453 429.089 118.521 430.547 118.658V138.756C426.4 138.756 423.164 139.394 420.84 140.67C418.561 141.946 416.693 144.247 415.234 147.574C413.776 150.855 413.047 155.299 413.047 160.904V189ZM503.965 157.896H459.531C459.486 159.127 459.463 160.198 459.463 161.109C459.463 166.031 460.762 169.745 463.359 172.252C466.003 174.758 469.147 176.012 472.793 176.012C479.583 176.012 483.662 172.389 485.029 165.143L503.486 166.51C498.337 182.46 487.878 190.436 472.109 190.436C465.228 190.436 459.372 189.068 454.541 186.334C449.756 183.554 445.791 179.521 442.646 174.234C439.548 168.948 437.998 162.613 437.998 155.23C437.998 144.247 441.12 135.383 447.363 128.639C453.652 121.894 461.719 118.521 471.562 118.521C480.449 118.521 488.06 121.666 494.395 127.955C500.775 134.199 503.965 144.179 503.965 157.896ZM459.463 146.07H484.004C483.366 136.591 479.469 131.852 472.314 131.852C464.658 131.852 460.374 136.591 459.463 146.07ZM622.158 95.6895L594.062 189H570.547L542.52 95.6895H565.762L584.424 162.408L603.77 95.6895H622.158ZM687.715 157.896H643.281C643.236 159.127 643.213 160.198 643.213 161.109C643.213 166.031 644.512 169.745 647.109 172.252C649.753 174.758 652.897 176.012 656.543 176.012C663.333 176.012 667.412 172.389 668.779 165.143L687.236 166.51C682.087 182.46 671.628 190.436 655.859 190.436C648.978 190.436 643.122 189.068 638.291 186.334C633.506 183.554 629.541 179.521 626.396 174.234C623.298 168.948 621.748 162.613 621.748 155.23C621.748 144.247 624.87 135.383 631.113 128.639C637.402 121.894 645.469 118.521 655.312 118.521C664.199 118.521 671.81 121.666 678.145 127.955C684.525 134.199 687.715 144.179 687.715 157.896ZM643.213 146.07H667.754C667.116 136.591 663.219 131.852 656.064 131.852C648.408 131.852 644.124 136.591 643.213 146.07ZM720.391 189H700.635V119.957H719.297V132.809C722.168 123.238 727.135 118.453 734.199 118.453C735.202 118.453 736.432 118.521 737.891 118.658V138.756C733.743 138.756 730.508 139.394 728.184 140.67C725.905 141.946 724.036 144.247 722.578 147.574C721.12 150.855 720.391 155.299 720.391 160.904V189ZM802.217 136.637L787.383 140.602C785.651 134.358 781.162 131.236 773.916 131.236C767.08 131.236 763.662 133.31 763.662 137.457C763.662 139.098 764.277 140.419 765.508 141.422C766.784 142.379 770.065 143.199 775.352 143.883C783.236 144.931 789.069 146.139 792.852 147.506C796.634 148.873 799.619 151.174 801.807 154.41C804.04 157.646 805.156 161.633 805.156 166.373C805.156 173.482 802.445 179.27 797.021 183.736C791.644 188.202 784.102 190.436 774.395 190.436C756.803 190.436 746.299 183.622 742.881 169.996L760.039 167.467C761.452 173.665 766.556 176.764 775.352 176.764C778.724 176.764 781.572 176.171 783.896 174.986C786.221 173.756 787.383 172.115 787.383 170.064C787.383 166.874 784.808 164.983 779.658 164.391C765.713 162.659 756.53 159.993 752.109 156.393C747.734 152.747 745.547 147.688 745.547 141.217C745.547 134.654 748.099 129.231 753.203 124.947C758.307 120.663 765.462 118.521 774.668 118.521C781.96 118.521 787.793 119.957 792.168 122.828C796.543 125.699 799.893 130.302 802.217 136.637ZM878.848 157.896H834.414C834.368 159.127 834.346 160.198 834.346 161.109C834.346 166.031 835.645 169.745 838.242 172.252C840.885 174.758 844.03 176.012 847.676 176.012C854.466 176.012 858.545 172.389 859.912 165.143L878.369 166.51C873.219 182.46 862.76 190.436 846.992 190.436C840.111 190.436 834.255 189.068 829.424 186.334C824.639 183.554 820.674 179.521 817.529 174.234C814.43 168.948 812.881 162.613 812.881 155.23C812.881 144.247 816.003 135.383 822.246 128.639C828.535 121.894 836.602 118.521 846.445 118.521C855.332 118.521 862.943 121.666 869.277 127.955C875.658 134.199 878.848 144.179 878.848 157.896ZM834.346 146.07H858.887C858.249 136.591 854.352 131.852 847.197 131.852C839.541 131.852 835.257 136.591 834.346 146.07Z" fill="white"/>
<path d="M192.383 114.146V122.146H200.383V114.146H192.383ZM148.701 114.146V106.146H140.701V114.146H148.701ZM148.701 135.064H140.701V143.064H148.701V135.064ZM183.223 135.064H191.223V127.064H183.223V135.064ZM183.223 152.496V160.496H191.223V152.496H183.223ZM148.701 152.496V144.496H140.701V152.496H148.701ZM148.701 189V197H156.701V189H148.701ZM126.006 189H118.006V197H126.006V189ZM126.006 95.6895V87.6895H118.006V95.6895H126.006ZM192.383 95.6895H200.383V87.6895H192.383V95.6895ZM192.383 106.146H148.701V122.146H192.383V106.146ZM140.701 114.146V135.064H156.701V114.146H140.701ZM148.701 143.064H183.223V127.064H148.701V143.064ZM175.223 135.064V152.496H191.223V135.064H175.223ZM183.223 144.496H148.701V160.496H183.223V144.496ZM140.701 152.496V189H156.701V152.496H140.701ZM148.701 181H126.006V197H148.701V181ZM134.006 189V95.6895H118.006V189H134.006ZM126.006 103.689H192.383V87.6895H126.006V103.689ZM184.383 95.6895V114.146H200.383V95.6895H184.383ZM223.076 119.957H231.076V111.957H223.076V119.957ZM223.076 189V197H231.076V189H223.076ZM202.705 189H194.705V197H202.705V189ZM202.705 119.957V111.957H194.705V119.957H202.705ZM223.076 93.7754H231.076V85.7754H223.076V93.7754ZM223.076 114.146V122.146H231.076V114.146H223.076ZM202.705 114.146H194.705V122.146H202.705V114.146ZM202.705 93.7754V85.7754H194.705V93.7754H202.705ZM215.076 119.957V189H231.076V119.957H215.076ZM223.076 181H202.705V197H223.076V181ZM210.705 189V119.957H194.705V189H210.705ZM202.705 127.957H223.076V111.957H202.705V127.957ZM215.076 93.7754V114.146H231.076V93.7754H215.076ZM223.076 106.146H202.705V122.146H223.076V106.146ZM210.705 114.146V93.7754H194.705V114.146H210.705ZM202.705 101.775H223.076V85.7754H202.705V101.775ZM308.867 121.529L307.202 129.354L316.867 131.41V121.529H308.867ZM295.537 126.861L287.682 125.344L286.9 129.394L289.746 132.38L295.537 126.861ZM292.871 155.572L288.247 149.044L288.234 149.053L288.221 149.062L292.871 155.572ZM258.691 160.357L260.24 152.509L257.257 151.92L254.635 153.462L258.691 160.357ZM272.295 172.047L272.706 164.057L272.696 164.057L272.685 164.056L272.295 172.047ZM299.639 206.773L294.863 200.356L294.851 200.364L294.839 200.373L299.639 206.773ZM240.234 208.756L244.48 201.975L244.457 201.961L244.434 201.947L240.234 208.756ZM244.746 184.83L246.843 192.55L267.08 187.053L248.324 177.675L244.746 184.83ZM249.805 157.076L252.782 164.501L271.018 157.189L252.861 149.683L249.805 157.076ZM245.977 124.537L241.347 118.013L241.334 118.022L241.322 118.031L245.977 124.537ZM287.607 121.529L285.025 129.101L294.52 132.34L295.564 122.362L287.607 121.529ZM291.025 111.891L284.625 107.091L284.618 107.1L284.611 107.109L291.025 111.891ZM308.867 108.609H316.867V102.051L310.436 100.765L308.867 108.609ZM260.947 132.398L266.468 138.188L266.471 138.185L260.947 132.398ZM277.832 147.301L272.238 141.582L272.206 141.613L272.175 141.644L277.832 147.301ZM278.037 132.672L272.193 138.135L272.223 138.167L272.253 138.199L278.037 132.672ZM252.471 190.162L247.264 184.088L247.21 184.135L247.156 184.183L252.471 190.162ZM285.146 199.527L282.364 192.027L282.344 192.034L282.324 192.042L285.146 199.527ZM285.83 190.367L282.784 197.765L282.809 197.775L282.834 197.785L285.83 190.367ZM267.1 188.932V180.932H267.033L266.966 180.933L267.1 188.932ZM262.998 189V197H263.065L263.131 196.999L262.998 189ZM257.939 188.795L256.443 196.654L256.567 196.677L256.692 196.697L257.939 188.795ZM310.532 113.704C308.086 113.184 305.688 112.846 303.467 112.846V128.846C304.162 128.846 305.364 128.963 307.202 129.354L310.532 113.704ZM303.467 112.846C300.085 112.846 296.402 113.596 293.265 115.976C290.032 118.429 288.353 121.87 287.682 125.344L303.392 128.379C303.449 128.081 303.497 128.054 303.424 128.182C303.387 128.246 303.327 128.338 303.238 128.44C303.148 128.544 303.045 128.64 302.936 128.723C302.706 128.898 302.55 128.937 302.592 128.925C302.653 128.908 302.918 128.846 303.467 128.846V112.846ZM289.746 132.38C292.17 134.924 293.074 137.373 293.074 139.986H309.074C309.074 132.847 306.287 126.546 301.329 121.342L289.746 132.38ZM293.074 139.986C293.074 143.822 291.67 146.62 288.247 149.044L297.495 162.1C305.01 156.777 309.074 149.184 309.074 139.986H293.074ZM288.221 149.062C284.708 151.572 278.782 153.383 269.355 153.383V169.383C280.436 169.383 290.188 167.32 297.521 162.082L288.221 149.062ZM269.355 153.383C266.213 153.383 263.177 153.088 260.24 152.509L257.142 168.206C261.132 168.994 265.207 169.383 269.355 169.383V153.383ZM254.635 153.462C250.6 155.836 247.205 159.886 247.205 165.621H263.205C263.205 165.818 263.177 166.08 263.089 166.374C263.001 166.669 262.876 166.921 262.746 167.116C262.494 167.497 262.348 167.488 262.748 167.253L254.635 153.462ZM247.205 165.621C247.205 167.889 247.676 170.444 249.15 172.809C250.668 175.244 252.859 176.851 255.203 177.778L261.086 162.898C261.471 163.05 262.191 163.483 262.729 164.346C263.224 165.139 263.205 165.723 263.205 165.621H247.205ZM255.203 177.778C257.22 178.575 259.787 178.998 262.193 179.288C264.815 179.605 268.072 179.85 271.905 180.037L272.685 164.056C269.043 163.879 266.205 163.657 264.111 163.404C261.8 163.125 261.029 162.876 261.086 162.898L255.203 177.778ZM271.883 180.036C282.536 180.585 289.329 181.229 292.721 181.884L295.756 166.175C291.127 165.28 283.291 164.603 272.706 164.057L271.883 180.036ZM292.721 181.884C295.08 182.34 296.916 183.37 298.477 185.061L310.234 174.209C306.326 169.975 301.418 167.268 295.756 166.175L292.721 181.884ZM298.477 185.061C299.711 186.397 300.457 188.089 300.457 190.709H316.457C316.457 184.488 314.469 178.797 310.234 174.209L298.477 185.061ZM300.457 190.709C300.457 194.095 299.075 197.221 294.863 200.356L304.415 213.191C311.96 207.576 316.457 199.992 316.457 190.709H300.457ZM294.839 200.373C291.237 203.075 283.202 205.336 268.535 205.336V221.336C283.673 221.336 296.374 219.222 304.439 213.173L294.839 200.373ZM268.535 205.336C261.791 205.336 256.394 204.965 252.245 204.294C247.976 203.603 245.608 202.682 244.48 201.975L235.989 215.536C239.737 217.883 244.524 219.252 249.689 220.088C254.973 220.943 261.289 221.336 268.535 221.336V205.336ZM244.434 201.947C241.285 200.005 240.92 198.473 240.92 197.271H224.92C224.92 205.367 229.431 211.492 236.034 215.565L244.434 201.947ZM240.92 197.271C240.92 196.077 241.23 195.527 241.675 195.059C242.295 194.406 243.741 193.393 246.843 192.55L242.649 177.11C237.867 178.409 233.4 180.54 230.078 184.035C226.581 187.714 224.92 192.313 224.92 197.271H240.92ZM248.324 177.675C244.439 175.732 243.996 174.015 243.996 172.525H227.996C227.996 181.609 233.386 188.094 241.168 191.985L248.324 177.675ZM243.996 172.525C243.996 170.743 244.846 167.684 252.782 164.501L246.827 149.651C236.352 153.851 227.996 161.092 227.996 172.525H243.996ZM252.861 149.683C249.785 148.412 248.07 146.962 247.105 145.631C246.185 144.362 245.568 142.683 245.568 140.191H229.568C229.568 145.584 230.991 150.661 234.15 155.02C237.264 159.317 241.666 162.368 246.748 164.469L252.861 149.683ZM245.568 140.191C245.568 136.559 246.947 133.68 250.631 131.043L241.322 118.031C233.795 123.415 229.568 130.972 229.568 140.191H245.568ZM250.607 131.061C254.433 128.346 260.388 126.521 269.355 126.521V110.521C258.453 110.521 248.822 112.708 241.347 118.013L250.607 131.061ZM269.355 126.521C274.777 126.521 279.988 127.383 285.025 129.101L290.19 113.958C283.469 111.665 276.512 110.521 269.355 110.521V126.521ZM295.564 122.362C295.863 119.505 296.628 117.76 297.439 116.672L284.611 107.109C281.686 111.034 280.172 115.715 279.651 120.697L295.564 122.362ZM297.425 116.691C297.1 117.124 296.96 116.944 297.899 116.647C298.868 116.34 300.531 116.062 303.125 116.062V100.062C296.616 100.062 288.994 101.266 284.625 107.091L297.425 116.691ZM303.125 116.062C304.644 116.062 306.031 116.2 307.298 116.454L310.436 100.765C308.058 100.289 305.616 100.062 303.125 100.062V116.062ZM300.867 108.609V121.529H316.867V108.609H300.867ZM269.219 121.527C264.224 121.527 259.284 122.926 255.423 126.612L266.471 138.185C266.621 138.043 267.196 137.527 269.219 137.527V121.527ZM255.427 126.609C251.65 130.21 250.008 134.909 250.008 139.85H266.008C266.008 138.592 266.326 138.324 266.468 138.188L255.427 126.609ZM250.008 139.85C250.008 144.739 251.343 149.836 255.369 153.594C259.291 157.254 264.426 158.377 269.287 158.377V142.377C266.629 142.377 266.124 141.746 266.286 141.897C266.552 142.145 266.008 141.979 266.008 139.85H250.008ZM269.287 158.377C274.48 158.377 279.575 156.872 283.489 152.958L272.175 141.644C271.988 141.832 271.386 142.377 269.287 142.377V158.377ZM283.426 153.019C287.052 149.473 288.977 144.932 288.977 139.85H272.977C272.977 140.601 272.805 141.027 272.238 141.582L283.426 153.019ZM288.977 139.85C288.977 134.973 287.144 130.623 283.821 127.145L272.253 138.199C272.849 138.823 272.977 139.258 272.977 139.85H288.977ZM283.881 127.209C279.918 122.969 274.515 121.527 269.219 121.527V137.527C270.487 137.527 271.257 137.699 271.676 137.849C272.05 137.982 272.16 138.099 272.193 138.135L283.881 127.209ZM255.615 180.521C251.695 180.521 248.714 182.846 247.264 184.088L257.677 196.236C258.03 195.934 258.102 195.926 257.914 196.024C257.766 196.102 256.936 196.521 255.615 196.521V180.521ZM247.156 184.183C244.338 186.687 242.625 190.136 242.625 194.127H258.625C258.625 194.444 258.554 194.887 258.339 195.35C258.129 195.8 257.882 196.056 257.786 196.141L247.156 184.183ZM242.625 194.127C242.625 197.551 243.8 200.968 246.521 203.626C249.029 206.077 252.188 207.232 255.038 207.789L258.106 192.086C256.991 191.868 257.177 191.668 257.703 192.182C257.995 192.467 258.265 192.855 258.441 193.303C258.61 193.732 258.625 194.043 258.625 194.127H242.625ZM255.038 207.789C259.639 208.688 264.823 209.1 270.518 209.1V193.1C265.548 193.1 261.435 192.736 258.106 192.086L255.038 207.789ZM270.518 209.1C277.502 209.1 283.694 208.625 287.969 207.013L282.324 192.042C281.039 192.526 277.479 193.1 270.518 193.1V209.1ZM287.929 207.028C290.183 206.192 292.588 204.845 294.457 202.614C296.442 200.245 297.385 197.395 297.385 194.469H281.385C281.385 194.229 281.423 193.863 281.574 193.434C281.727 193 281.952 192.626 282.193 192.339C282.649 191.794 282.935 191.815 282.364 192.027L287.929 207.028ZM297.385 194.469C297.385 188.02 292.656 184.496 288.826 182.949L282.834 197.785C283.299 197.973 282.958 197.936 282.451 197.35C282.175 197.032 281.887 196.591 281.676 196.034C281.465 195.474 281.385 194.932 281.385 194.469H297.385ZM288.876 182.97C286.408 181.953 283.093 181.55 280.016 181.314C276.605 181.053 272.276 180.932 267.1 180.932V196.932C272.086 196.932 275.96 197.05 278.793 197.267C281.96 197.51 282.928 197.824 282.784 197.765L288.876 182.97ZM266.966 180.933L262.865 181.001L263.131 196.999L267.233 196.931L266.966 180.933ZM262.998 181C261.807 181 260.875 180.984 260.178 180.955C259.417 180.924 259.151 180.887 259.187 180.893L256.692 196.697C258.273 196.947 260.575 197 262.998 197V181ZM259.436 180.936C258.257 180.712 256.926 180.521 255.615 180.521V196.521C255.519 196.521 255.538 196.515 255.706 196.535C255.865 196.554 256.107 196.59 256.443 196.654L259.436 180.936ZM376.406 119.957H384.406V111.957H376.406V119.957ZM376.406 189V197H384.406V189H376.406ZM357.539 189H349.539V197H357.539V189ZM357.539 177.242H365.539L350.122 174.245L357.539 177.242ZM325.205 187.564L320.596 194.103L320.632 194.129L320.668 194.154L325.205 187.564ZM319.189 179.635L311.642 182.287L311.663 182.348L311.686 182.41L319.189 179.635ZM317.412 119.957V111.957H309.412V119.957H317.412ZM337.168 119.957H345.168V111.957H337.168V119.957ZM351.592 172.184L356.44 178.547L356.488 178.511L356.534 178.474L351.592 172.184ZM355.215 167.398L347.605 164.93L347.575 165.024L347.547 165.119L355.215 167.398ZM356.035 119.957V111.957H348.035V119.957H356.035ZM368.406 119.957V189H384.406V119.957H368.406ZM376.406 181H357.539V197H376.406V181ZM365.539 189V177.242H349.539V189H365.539ZM350.122 174.245C348.852 177.388 347.22 179.264 345.431 180.422C343.611 181.602 341.008 182.436 337.168 182.436V198.436C343.354 198.436 349.16 197.07 354.129 193.852C359.131 190.612 362.672 185.892 364.956 180.24L350.122 174.245ZM337.168 182.436C332.779 182.436 330.645 181.597 329.742 180.975L320.668 194.154C325.325 197.36 331.167 198.436 337.168 198.436V182.436ZM329.814 181.026C328.417 180.04 327.387 178.737 326.693 176.86L311.686 182.41C313.453 187.186 316.434 191.169 320.596 194.103L329.814 181.026ZM326.737 176.983C325.998 174.88 325.412 171.091 325.412 165.074H309.412C309.412 171.727 310.011 177.645 311.642 182.287L326.737 176.983ZM325.412 165.074V119.957H309.412V165.074H325.412ZM317.412 127.957H337.168V111.957H317.412V127.957ZM329.168 119.957V165.074H345.168V119.957H329.168ZM329.168 165.074C329.168 169.07 329.959 173.553 332.907 177.133C336.099 181.009 340.585 182.371 344.824 182.371V166.371C344.342 166.371 344.284 166.297 344.476 166.374C344.576 166.415 344.716 166.486 344.87 166.598C345.024 166.711 345.156 166.838 345.257 166.961C345.465 167.213 345.441 167.314 345.361 167.024C345.276 166.716 345.168 166.101 345.168 165.074H329.168ZM344.824 182.371C349.026 182.371 353.019 181.153 356.44 178.547L346.743 165.82C346.336 166.13 345.818 166.371 344.824 166.371V182.371ZM356.534 178.474C359.264 176.33 361.76 173.456 362.883 169.678L347.547 165.119C347.667 164.714 347.748 165.03 346.649 165.893L356.534 178.474ZM362.825 169.866C363.797 166.868 364.035 162.847 364.035 158.717H348.035C348.035 160.609 347.971 162.092 347.866 163.211C347.813 163.766 347.754 164.188 347.699 164.497C347.642 164.815 347.601 164.942 347.605 164.93L362.825 169.866ZM364.035 158.717V119.957H348.035V158.717H364.035ZM356.035 127.957H376.406V111.957H356.035V127.957ZM413.047 189V197H421.047V189H413.047ZM393.291 189H385.291V197H393.291V189ZM393.291 119.957V111.957H385.291V119.957H393.291ZM411.953 119.957H419.953V111.957H411.953V119.957ZM411.953 132.809H403.953L419.616 135.107L411.953 132.809ZM430.547 118.658H438.547V111.373L431.294 110.693L430.547 118.658ZM430.547 138.756V146.756H438.547V138.756H430.547ZM420.84 140.67L416.99 133.657L416.96 133.673L416.931 133.69L420.84 140.67ZM415.234 147.574L422.545 150.823L422.553 150.805L422.561 150.786L415.234 147.574ZM413.047 181H393.291V197H413.047V181ZM401.291 189V119.957H385.291V189H401.291ZM393.291 127.957H411.953V111.957H393.291V127.957ZM403.953 119.957V132.809H419.953V119.957H403.953ZM419.616 135.107C420.822 131.086 422.234 128.909 423.382 127.804C424.336 126.885 425.338 126.453 426.855 126.453V110.453C421.309 110.453 416.296 112.414 412.282 116.28C408.462 119.96 405.955 124.961 404.291 130.51L419.616 135.107ZM426.855 126.453C427.524 126.453 428.488 126.5 429.8 126.623L431.294 110.693C429.689 110.543 428.192 110.453 426.855 110.453V126.453ZM422.547 118.658V138.756H438.547V118.658H422.547ZM430.547 130.756C425.742 130.756 420.978 131.468 416.99 133.657L424.69 147.683C425.35 147.32 427.057 146.756 430.547 146.756V130.756ZM416.931 133.69C412.64 136.093 409.797 140.051 407.907 144.362L422.561 150.786C423.588 148.444 424.483 147.799 424.749 147.65L416.931 133.69ZM407.924 144.325C405.828 149.041 405.047 154.741 405.047 160.904H421.047C421.047 155.856 421.724 152.67 422.545 150.823L407.924 144.325ZM405.047 160.904V189H421.047V160.904H405.047ZM503.965 157.896V165.896H511.965V157.896H503.965ZM459.531 157.896V149.896H451.822L451.537 157.6L459.531 157.896ZM463.359 172.252L457.804 178.009L457.829 178.033L457.855 178.057L463.359 172.252ZM485.029 165.143L485.62 157.164L478.493 156.636L477.168 163.659L485.029 165.143ZM503.486 166.51L511.099 168.968L514.226 159.283L504.077 158.532L503.486 166.51ZM454.541 186.334L450.522 193.251L450.561 193.274L450.6 193.296L454.541 186.334ZM442.646 174.234L435.745 178.28L435.758 178.302L435.771 178.324L442.646 174.234ZM447.363 128.639L441.512 123.183L441.502 123.194L441.492 123.204L447.363 128.639ZM494.395 127.955L488.758 133.632L488.779 133.653L488.799 133.673L494.395 127.955ZM459.463 146.07L451.5 145.305L450.657 154.07H459.463V146.07ZM484.004 146.07V154.07H492.56L491.986 145.533L484.004 146.07ZM503.965 149.896H459.531V165.896H503.965V149.896ZM451.537 157.6C451.489 158.898 451.463 160.072 451.463 161.109H467.463C467.463 160.324 467.483 159.356 467.526 158.193L451.537 157.6ZM451.463 161.109C451.463 167.389 453.142 173.511 457.804 178.009L468.914 166.495C468.381 165.98 467.463 164.673 467.463 161.109H451.463ZM457.855 178.057C461.986 181.974 467.101 184.012 472.793 184.012V168.012C471.193 168.012 470.02 167.543 468.864 166.447L457.855 178.057ZM472.793 184.012C477.649 184.012 482.42 182.684 486.258 179.276C490.018 175.935 491.993 171.382 492.891 166.626L477.168 163.659C476.698 166.149 475.95 167.031 475.632 167.313C475.391 167.528 474.728 168.012 472.793 168.012V184.012ZM484.438 173.121L502.895 174.488L504.077 158.532L485.62 157.164L484.438 173.121ZM495.873 164.052C493.662 170.9 490.546 175.335 486.929 178.093C483.354 180.818 478.6 182.436 472.109 182.436V198.436C481.387 198.436 489.746 196.065 496.631 190.816C503.473 185.598 508.161 178.07 511.099 168.968L495.873 164.052ZM472.109 182.436C466.282 182.436 461.855 181.281 458.482 179.372L450.6 193.296C456.889 196.856 464.174 198.436 472.109 198.436V182.436ZM458.56 179.417C455.079 177.395 452.05 174.394 449.522 170.145L435.771 178.324C439.532 184.648 444.433 189.714 450.522 193.251L458.56 179.417ZM449.548 170.189C447.303 166.358 445.998 161.483 445.998 155.23H429.998C429.998 163.744 431.792 171.537 435.745 178.28L449.548 170.189ZM445.998 155.23C445.998 145.846 448.618 139.06 453.234 134.073L441.492 123.204C433.622 131.707 429.998 142.649 429.998 155.23H445.998ZM453.214 134.094C457.88 129.091 463.77 126.521 471.562 126.521V110.521C459.668 110.521 449.425 114.697 441.512 123.183L453.214 134.094ZM471.562 126.521C478.327 126.521 483.915 128.824 488.758 133.632L500.031 122.278C492.205 114.508 482.572 110.521 471.562 110.521V126.521ZM488.799 133.673C492.986 137.77 495.965 145.197 495.965 157.896H511.965C511.965 143.161 508.564 130.627 499.99 122.237L488.799 133.673ZM459.463 154.07H484.004V138.07H459.463V154.07ZM491.986 145.533C491.612 139.981 490.228 134.517 486.783 130.326C483.054 125.79 477.841 123.852 472.314 123.852V139.852C473.222 139.852 473.702 140.001 473.917 140.093C474.097 140.17 474.245 140.269 474.423 140.487C474.874 141.035 475.758 142.681 476.022 146.608L491.986 145.533ZM472.314 123.852C466.713 123.852 461.382 125.663 457.424 130.042C453.688 134.176 452.043 139.653 451.5 145.305L467.426 146.836C467.794 143.008 468.747 141.376 469.294 140.771C469.62 140.41 470.26 139.852 472.314 139.852V123.852ZM622.158 95.6895L629.818 97.996L632.922 87.6895H622.158V95.6895ZM594.062 189V197H600.008L601.723 191.307L594.062 189ZM570.547 189L562.885 191.301L564.597 197H570.547V189ZM542.52 95.6895V87.6895H531.764L534.858 97.9908L542.52 95.6895ZM565.762 95.6895L573.466 93.5345L571.831 87.6895H565.762V95.6895ZM584.424 162.408L576.72 164.563L584.285 191.612L592.107 164.636L584.424 162.408ZM603.77 95.6895V87.6895H597.76L596.086 93.4615L603.77 95.6895ZM614.498 93.3829L586.402 186.693L601.723 191.307L629.818 97.996L614.498 93.3829ZM594.062 181H570.547V197H594.062V181ZM578.209 186.699L550.181 93.3881L534.858 97.9908L562.885 191.301L578.209 186.699ZM542.52 103.689H565.762V87.6895H542.52V103.689ZM558.057 97.8444L576.72 164.563L592.128 160.253L573.466 93.5345L558.057 97.8444ZM592.107 164.636L611.453 97.9174L596.086 93.4615L576.74 160.18L592.107 164.636ZM603.77 103.689H622.158V87.6895H603.77V103.689ZM687.715 157.896V165.896H695.715V157.896H687.715ZM643.281 157.896V149.896H635.572L635.287 157.6L643.281 157.896ZM647.109 172.252L641.554 178.009L641.579 178.033L641.605 178.057L647.109 172.252ZM668.779 165.143L669.37 157.164L662.243 156.636L660.918 163.659L668.779 165.143ZM687.236 166.51L694.849 168.968L697.976 159.283L687.827 158.532L687.236 166.51ZM638.291 186.334L634.272 193.251L634.311 193.274L634.35 193.296L638.291 186.334ZM626.396 174.234L619.495 178.28L619.508 178.302L619.521 178.324L626.396 174.234ZM631.113 128.639L625.262 123.183L625.252 123.194L625.242 123.204L631.113 128.639ZM678.145 127.955L672.508 133.632L672.529 133.653L672.549 133.673L678.145 127.955ZM643.213 146.07L635.25 145.305L634.407 154.07H643.213V146.07ZM667.754 146.07V154.07H676.31L675.736 145.533L667.754 146.07ZM687.715 149.896H643.281V165.896H687.715V149.896ZM635.287 157.6C635.239 158.898 635.213 160.072 635.213 161.109H651.213C651.213 160.324 651.233 159.356 651.276 158.193L635.287 157.6ZM635.213 161.109C635.213 167.389 636.892 173.511 641.554 178.009L652.664 166.495C652.131 165.98 651.213 164.673 651.213 161.109H635.213ZM641.605 178.057C645.736 181.974 650.851 184.012 656.543 184.012V168.012C654.943 168.012 653.77 167.543 652.614 166.447L641.605 178.057ZM656.543 184.012C661.399 184.012 666.17 182.684 670.008 179.276C673.768 175.935 675.743 171.382 676.641 166.626L660.918 163.659C660.448 166.149 659.7 167.031 659.382 167.313C659.141 167.528 658.478 168.012 656.543 168.012V184.012ZM668.188 173.121L686.645 174.488L687.827 158.532L669.37 157.164L668.188 173.121ZM679.623 164.052C677.412 170.9 674.296 175.335 670.679 178.093C667.104 180.818 662.35 182.436 655.859 182.436V198.436C665.137 198.436 673.496 196.065 680.381 190.816C687.223 185.598 691.911 178.07 694.849 168.968L679.623 164.052ZM655.859 182.436C650.032 182.436 645.605 181.281 642.232 179.372L634.35 193.296C640.639 196.856 647.924 198.436 655.859 198.436V182.436ZM642.31 179.417C638.829 177.395 635.8 174.394 633.272 170.145L619.521 178.324C623.282 184.648 628.183 189.714 634.272 193.251L642.31 179.417ZM633.298 170.189C631.053 166.358 629.748 161.483 629.748 155.23H613.748C613.748 163.744 615.542 171.537 619.495 178.28L633.298 170.189ZM629.748 155.23C629.748 145.846 632.368 139.06 636.984 134.073L625.242 123.204C617.372 131.707 613.748 142.649 613.748 155.23H629.748ZM636.964 134.094C641.63 129.091 647.52 126.521 655.312 126.521V110.521C643.418 110.521 633.175 114.697 625.262 123.183L636.964 134.094ZM655.312 126.521C662.077 126.521 667.665 128.824 672.508 133.632L683.781 122.278C675.955 114.508 666.322 110.521 655.312 110.521V126.521ZM672.549 133.673C676.736 137.77 679.715 145.197 679.715 157.896H695.715C695.715 143.161 692.314 130.627 683.74 122.237L672.549 133.673ZM643.213 154.07H667.754V138.07H643.213V154.07ZM675.736 145.533C675.362 139.981 673.978 134.517 670.533 130.326C666.804 125.79 661.591 123.852 656.064 123.852V139.852C656.972 139.852 657.452 140.001 657.667 140.093C657.847 140.17 657.995 140.269 658.173 140.487C658.624 141.035 659.508 142.681 659.772 146.608L675.736 145.533ZM656.064 123.852C650.463 123.852 645.132 125.663 641.174 130.042C637.438 134.176 635.793 139.653 635.25 145.305L651.176 146.836C651.544 143.008 652.497 141.376 653.044 140.771C653.37 140.41 654.01 139.852 656.064 139.852V123.852ZM720.391 189V197H728.391V189H720.391ZM700.635 189H692.635V197H700.635V189ZM700.635 119.957V111.957H692.635V119.957H700.635ZM719.297 119.957H727.297V111.957H719.297V119.957ZM719.297 132.809H711.297L726.959 135.107L719.297 132.809ZM737.891 118.658H745.891V111.373L738.637 110.693L737.891 118.658ZM737.891 138.756V146.756H745.891V138.756H737.891ZM728.184 140.67L724.334 133.657L724.304 133.673L724.275 133.69L728.184 140.67ZM722.578 147.574L729.889 150.823L729.897 150.805L729.905 150.786L722.578 147.574ZM720.391 181H700.635V197H720.391V181ZM708.635 189V119.957H692.635V189H708.635ZM700.635 127.957H719.297V111.957H700.635V127.957ZM711.297 119.957V132.809H727.297V119.957H711.297ZM726.959 135.107C728.166 131.086 729.578 128.909 730.726 127.804C731.679 126.885 732.682 126.453 734.199 126.453V110.453C728.653 110.453 723.64 112.414 719.626 116.28C715.806 119.96 713.299 124.961 711.634 130.51L726.959 135.107ZM734.199 126.453C734.868 126.453 735.832 126.5 737.144 126.623L738.637 110.693C737.033 110.543 735.536 110.453 734.199 110.453V126.453ZM729.891 118.658V138.756H745.891V118.658H729.891ZM737.891 130.756C733.086 130.756 728.322 131.468 724.334 133.657L732.034 147.683C732.694 147.32 734.401 146.756 737.891 146.756V130.756ZM724.275 133.69C719.984 136.093 717.141 140.051 715.251 144.362L729.905 150.786C730.932 148.444 731.826 147.799 732.092 147.65L724.275 133.69ZM715.268 144.325C713.172 149.041 712.391 154.741 712.391 160.904H728.391C728.391 155.856 729.068 152.67 729.889 150.823L715.268 144.325ZM712.391 160.904V189H728.391V160.904H712.391ZM802.217 136.637L804.283 144.365L812.744 142.104L809.727 133.881L802.217 136.637ZM787.383 140.602L779.674 142.74L781.792 150.377L789.449 148.33L787.383 140.602ZM765.508 141.422L760.454 147.624L760.579 147.725L760.708 147.822L765.508 141.422ZM775.352 143.883L776.406 135.953L776.392 135.951L776.378 135.949L775.352 143.883ZM801.807 154.41L795.179 158.891L795.201 158.923L795.222 158.954L801.807 154.41ZM797.021 183.736L791.936 177.561L791.923 177.571L791.91 177.582L797.021 183.736ZM742.881 169.996L741.714 162.082L732.971 163.37L735.121 171.942L742.881 169.996ZM760.039 167.467L767.839 165.689L766.194 158.473L758.872 159.552L760.039 167.467ZM783.896 174.986L787.53 182.114L787.585 182.086L787.64 182.057L783.896 174.986ZM779.658 164.391L778.672 172.33L778.708 172.334L778.744 172.338L779.658 164.391ZM752.109 156.393L746.988 162.538L747.022 162.567L747.057 162.596L752.109 156.393ZM753.203 124.947L748.06 118.819L753.203 124.947ZM800.151 128.908L785.317 132.873L789.449 148.33L804.283 144.365L800.151 128.908ZM795.092 138.463C793.824 133.892 791.333 129.825 787.285 127.01C783.326 124.256 778.648 123.236 773.916 123.236V139.236C776.43 139.236 777.62 139.777 778.15 140.146C778.59 140.452 779.21 141.068 779.674 142.74L795.092 138.463ZM773.916 123.236C769.95 123.236 765.637 123.791 762.076 125.952C757.869 128.504 755.662 132.715 755.662 137.457H771.662C771.662 137.539 771.637 138 771.314 138.588C770.984 139.189 770.565 139.516 770.375 139.631C770.238 139.715 770.376 139.596 771.016 139.466C771.645 139.339 772.587 139.236 773.916 139.236V123.236ZM755.662 137.457C755.662 141.409 757.288 145.044 760.454 147.624L770.561 135.22C770.799 135.413 771.13 135.773 771.376 136.302C771.619 136.825 771.662 137.258 771.662 137.457H755.662ZM760.708 147.822C762.716 149.328 765.211 150.072 766.985 150.516C769.047 151.031 771.528 151.455 774.326 151.817L776.378 135.949C773.889 135.627 772.086 135.299 770.866 134.994C770.26 134.842 769.908 134.724 769.748 134.661C769.535 134.578 769.825 134.66 770.308 135.022L760.708 147.822ZM774.297 151.813C782.051 152.844 787.187 153.965 790.132 155.029L795.571 139.982C790.951 138.313 784.42 137.018 776.406 135.953L774.297 151.813ZM790.132 155.029C792.374 155.84 793.969 157.101 795.179 158.891L808.434 149.93C805.269 145.248 800.895 141.906 795.571 139.982L790.132 155.029ZM795.222 158.954C796.358 160.599 797.156 162.917 797.156 166.373H813.156C813.156 160.35 811.722 154.692 808.391 149.866L795.222 158.954ZM797.156 166.373C797.156 171.125 795.488 174.635 791.936 177.561L802.107 189.912C809.401 183.905 813.156 175.84 813.156 166.373H797.156ZM791.91 177.582C788.439 180.465 782.954 182.436 774.395 182.436V198.436C785.249 198.436 794.849 195.94 802.133 189.891L791.91 177.582ZM774.395 182.436C766.544 182.436 761.207 180.904 757.676 178.614C754.332 176.445 751.922 173.16 750.64 168.05L735.121 171.942C737.257 180.459 741.809 187.393 748.97 192.038C755.943 196.561 764.654 198.436 774.395 198.436V182.436ZM744.048 177.911L761.206 175.381L758.872 159.552L741.714 162.082L744.048 177.911ZM752.239 169.245C753.392 174.303 756.243 178.526 760.775 181.278C765.036 183.865 770.138 184.764 775.352 184.764V168.764C771.769 168.764 769.922 168.113 769.079 167.601C768.506 167.254 768.099 166.829 767.839 165.689L752.239 169.245ZM775.352 184.764C779.629 184.764 783.8 184.015 787.53 182.114L780.263 167.859C779.344 168.327 777.819 168.764 775.352 168.764V184.764ZM787.64 182.057C791.715 179.899 795.383 175.946 795.383 170.064H779.383C779.383 169.811 779.42 169.484 779.534 169.123C779.648 168.761 779.812 168.451 779.983 168.209C780.314 167.742 780.537 167.713 780.153 167.916L787.64 182.057ZM795.383 170.064C795.383 165.919 793.523 162.256 790.188 159.806C787.285 157.674 783.759 156.81 780.573 156.443L778.744 172.338C779.646 172.442 780.238 172.582 780.589 172.694C780.945 172.809 780.925 172.855 780.716 172.701C780.473 172.523 780.075 172.145 779.764 171.531C779.453 170.917 779.383 170.371 779.383 170.064H795.383ZM780.644 156.452C773.916 155.616 768.586 154.583 764.542 153.41C760.377 152.2 758.161 151.004 757.161 150.19L747.057 162.596C750.478 165.381 755.064 167.318 760.082 168.775C765.221 170.267 771.455 171.433 778.672 172.33L780.644 156.452ZM757.231 150.247C754.942 148.339 753.547 145.677 753.547 141.217H737.547C737.547 149.699 740.527 157.154 746.988 162.538L757.231 150.247ZM753.547 141.217C753.547 137.061 755.021 133.866 758.346 131.075L748.06 118.819C741.177 124.596 737.547 132.248 737.547 141.217H753.547ZM758.346 131.075C761.544 128.391 766.63 126.521 774.668 126.521V110.521C764.295 110.521 755.071 112.935 748.06 118.819L758.346 131.075ZM774.668 126.521C780.991 126.521 785.127 127.776 787.779 129.517L796.557 116.14C790.459 112.138 782.928 110.521 774.668 110.521V126.521ZM787.779 129.517C790.351 131.205 792.802 134.202 794.706 139.392L809.727 133.881C806.983 126.403 802.735 120.194 796.557 116.14L787.779 129.517ZM878.848 157.896V165.896H886.848V157.896H878.848ZM834.414 157.896V149.896H826.705L826.42 157.6L834.414 157.896ZM838.242 172.252L832.687 178.009L832.712 178.033L832.737 178.057L838.242 172.252ZM859.912 165.143L860.503 157.164L853.376 156.636L852.051 163.659L859.912 165.143ZM878.369 166.51L885.982 168.968L889.109 159.283L878.96 158.532L878.369 166.51ZM829.424 186.334L825.405 193.251L825.444 193.274L825.483 193.296L829.424 186.334ZM817.529 174.234L810.628 178.28L810.641 178.302L810.654 178.324L817.529 174.234ZM822.246 128.639L816.395 123.183L816.385 123.194L816.375 123.204L822.246 128.639ZM869.277 127.955L863.641 133.632L863.661 133.653L863.682 133.673L869.277 127.955ZM834.346 146.07L826.382 145.305L825.54 154.07H834.346V146.07ZM858.887 146.07V154.07H867.443L866.869 145.533L858.887 146.07ZM878.848 149.896H834.414V165.896H878.848V149.896ZM826.42 157.6C826.371 158.898 826.346 160.072 826.346 161.109H842.346C842.346 160.324 842.365 159.356 842.409 158.193L826.42 157.6ZM826.346 161.109C826.346 167.389 828.025 173.511 832.687 178.009L843.797 166.495C843.264 165.98 842.346 164.673 842.346 161.109H826.346ZM832.737 178.057C836.868 181.974 841.984 184.012 847.676 184.012V168.012C846.076 168.012 844.902 167.543 843.747 166.447L832.737 178.057ZM847.676 184.012C852.531 184.012 857.303 182.684 861.14 179.276C864.901 175.935 866.876 171.382 867.773 166.626L852.051 163.659C851.581 166.149 850.833 167.031 850.515 167.313C850.273 167.528 849.611 168.012 847.676 168.012V184.012ZM859.321 173.121L877.778 174.488L878.96 158.532L860.503 157.164L859.321 173.121ZM870.756 164.052C868.545 170.9 865.429 175.335 861.812 178.093C858.237 180.818 853.483 182.436 846.992 182.436V198.436C856.27 198.436 864.629 196.065 871.513 190.816C878.355 185.598 883.044 178.07 885.982 168.968L870.756 164.052ZM846.992 182.436C841.164 182.436 836.737 181.281 833.365 179.372L825.483 193.296C831.772 196.856 839.057 198.436 846.992 198.436V182.436ZM833.443 179.417C829.962 177.395 826.933 174.394 824.405 170.145L810.654 178.324C814.415 184.648 819.315 189.714 825.405 193.251L833.443 179.417ZM824.431 170.189C822.186 166.358 820.881 161.483 820.881 155.23H804.881C804.881 163.744 806.675 171.537 810.628 178.28L824.431 170.189ZM820.881 155.23C820.881 145.846 823.501 139.06 828.117 134.073L816.375 123.204C808.504 131.707 804.881 142.649 804.881 155.23H820.881ZM828.097 134.094C832.762 129.091 838.653 126.521 846.445 126.521V110.521C834.55 110.521 824.308 114.697 816.395 123.183L828.097 134.094ZM846.445 126.521C853.21 126.521 858.797 128.824 863.641 133.632L874.914 122.278C867.088 114.508 857.454 110.521 846.445 110.521V126.521ZM863.682 133.673C867.869 137.77 870.848 145.197 870.848 157.896H886.848C886.848 143.161 883.446 130.627 874.873 122.237L863.682 133.673ZM834.346 154.07H858.887V138.07H834.346V154.07ZM866.869 145.533C866.495 139.981 865.111 134.517 861.666 130.326C857.937 125.79 852.724 123.852 847.197 123.852V139.852C848.104 139.852 848.585 140.001 848.799 140.093C848.98 140.17 849.127 140.269 849.306 140.487C849.757 141.035 850.64 142.681 850.905 146.608L866.869 145.533ZM847.197 123.852C841.596 123.852 836.265 125.663 832.307 130.042C828.571 134.176 826.926 139.653 826.382 145.305L842.309 146.836C842.677 143.008 843.63 141.376 844.177 140.771C844.503 140.41 845.143 139.852 847.197 139.852V123.852Z" fill="black" mask="url(#path-2-outside-1_35_4)"/>
</svg>
