<svg width="792" height="247" viewBox="0 0 792 247" fill="none" xmlns="http://www.w3.org/2000/svg">
<path d="M0 6C0 2.6863 2.68629 0 6 0H786C789.314 0 792 2.68629 792 6V241C792 244.314 789.314 247 786 247H5.99999C2.68629 247 0 244.314 0 241V6Z" fill="#FF0000"/>
<path d="M88.3828 97.1465H44.7012V118.064H79.2227V135.496H44.7012V172H22.0059V78.6895H88.3828V97.1465ZM119.076 102.957V172H98.7051V102.957H119.076ZM119.076 76.7754V97.1465H98.7051V76.7754H119.076ZM204.867 104.529C202.725 104.074 200.925 103.846 199.467 103.846C194.955 103.846 192.312 105.851 191.537 109.861C195.229 113.735 197.074 118.11 197.074 122.986C197.074 129.503 194.34 134.699 188.871 138.572C183.448 142.446 175.609 144.383 165.355 144.383C161.71 144.383 158.155 144.041 154.691 143.357C152.367 144.725 151.205 146.479 151.205 148.621C151.205 150.991 152.185 152.563 154.145 153.338C156.104 154.113 160.821 154.682 168.295 155.047C178.913 155.594 186.228 156.255 190.238 157.029C194.249 157.804 197.621 159.673 200.355 162.635C203.09 165.597 204.457 169.288 204.457 173.709C204.457 180.044 201.518 185.398 195.639 189.773C189.805 194.148 179.438 196.336 164.535 196.336C150.544 196.336 141.111 194.809 136.234 191.756C131.358 188.748 128.92 184.92 128.92 180.271C128.92 174.119 132.862 169.972 140.746 167.83C134.913 164.913 131.996 160.812 131.996 155.525C131.996 148.917 136.599 143.768 145.805 140.076C137.647 136.704 133.568 131.076 133.568 123.191C133.568 116.766 136.371 111.548 141.977 107.537C147.628 103.527 155.421 101.521 165.355 101.521C171.645 101.521 177.729 102.524 183.607 104.529C184.018 100.61 185.157 97.3971 187.025 94.8906C188.939 92.3385 192.973 91.0625 199.125 91.0625C201.13 91.0625 203.044 91.2448 204.867 91.6094V104.529ZM165.219 112.527C161.71 112.527 158.952 113.484 156.947 115.398C154.988 117.267 154.008 119.751 154.008 122.85C154.008 129.868 157.768 133.377 165.287 133.377C168.933 133.377 171.781 132.352 173.832 130.301C175.928 128.25 176.977 125.766 176.977 122.85C176.977 120.115 175.997 117.723 174.037 115.672C172.077 113.576 169.138 112.527 165.219 112.527ZM151.615 171.521C150.795 171.521 149.747 172.068 148.471 173.162C147.24 174.256 146.625 175.577 146.625 177.127C146.625 180.226 148.607 182.163 152.572 182.938C156.537 183.712 161.186 184.1 166.518 184.1C173.49 184.1 178.367 183.576 181.146 182.527C183.972 181.479 185.385 179.793 185.385 177.469C185.385 175.691 184.2 174.324 181.83 173.367C179.506 172.41 173.262 171.932 163.1 171.932L158.998 172C156.492 172 154.805 171.932 153.939 171.795C152.982 171.613 152.208 171.521 151.615 171.521ZM272.406 102.957V172H253.539V160.242C249.984 169.038 243.194 173.436 233.168 173.436C227.973 173.436 223.985 172.479 221.205 170.564C218.425 168.605 216.42 165.962 215.189 162.635C214.005 159.262 213.412 154.409 213.412 148.074V102.957H233.168V148.074C233.168 154.272 235.72 157.371 240.824 157.371C243.422 157.371 245.678 156.642 247.592 155.184C249.506 153.68 250.714 152.085 251.215 150.398C251.762 148.712 252.035 145.818 252.035 141.717V102.957H272.406ZM309.047 172H289.291V102.957H307.953V115.809C310.824 106.238 315.792 101.453 322.855 101.453C323.858 101.453 325.089 101.521 326.547 101.658V121.756C322.4 121.756 319.164 122.394 316.84 123.67C314.561 124.946 312.693 127.247 311.234 130.574C309.776 133.855 309.047 138.299 309.047 143.904V172ZM399.965 140.896H355.531C355.486 142.127 355.463 143.198 355.463 144.109C355.463 149.031 356.762 152.745 359.359 155.252C362.003 157.758 365.147 159.012 368.793 159.012C375.583 159.012 379.662 155.389 381.029 148.143L399.486 149.51C394.337 165.46 383.878 173.436 368.109 173.436C361.228 173.436 355.372 172.068 350.541 169.334C345.756 166.554 341.791 162.521 338.646 157.234C335.548 151.948 333.998 145.613 333.998 138.23C333.998 127.247 337.12 118.383 343.363 111.639C349.652 104.894 357.719 101.521 367.562 101.521C376.449 101.521 384.06 104.666 390.395 110.955C396.775 117.199 399.965 127.179 399.965 140.896ZM355.463 129.07H380.004C379.366 119.591 375.469 114.852 368.314 114.852C360.658 114.852 356.374 119.591 355.463 129.07ZM518.158 78.6895L490.062 172H466.547L438.52 78.6895H461.762L480.424 145.408L499.77 78.6895H518.158ZM583.715 140.896H539.281C539.236 142.127 539.213 143.198 539.213 144.109C539.213 149.031 540.512 152.745 543.109 155.252C545.753 157.758 548.897 159.012 552.543 159.012C559.333 159.012 563.412 155.389 564.779 148.143L583.236 149.51C578.087 165.46 567.628 173.436 551.859 173.436C544.978 173.436 539.122 172.068 534.291 169.334C529.506 166.554 525.541 162.521 522.396 157.234C519.298 151.948 517.748 145.613 517.748 138.23C517.748 127.247 520.87 118.383 527.113 111.639C533.402 104.894 541.469 101.521 551.312 101.521C560.199 101.521 567.81 104.666 574.145 110.955C580.525 117.199 583.715 127.179 583.715 140.896ZM539.213 129.07H563.754C563.116 119.591 559.219 114.852 552.064 114.852C544.408 114.852 540.124 119.591 539.213 129.07ZM616.391 172H596.635V102.957H615.297V115.809C618.168 106.238 623.135 101.453 630.199 101.453C631.202 101.453 632.432 101.521 633.891 101.658V121.756C629.743 121.756 626.508 122.394 624.184 123.67C621.905 124.946 620.036 127.247 618.578 130.574C617.12 133.855 616.391 138.299 616.391 143.904V172ZM698.217 119.637L683.383 123.602C681.651 117.358 677.162 114.236 669.916 114.236C663.08 114.236 659.662 116.31 659.662 120.457C659.662 122.098 660.277 123.419 661.508 124.422C662.784 125.379 666.065 126.199 671.352 126.883C679.236 127.931 685.069 129.139 688.852 130.506C692.634 131.873 695.619 134.174 697.807 137.41C700.04 140.646 701.156 144.633 701.156 149.373C701.156 156.482 698.445 162.27 693.021 166.736C687.644 171.202 680.102 173.436 670.395 173.436C652.803 173.436 642.299 166.622 638.881 152.996L656.039 150.467C657.452 156.665 662.556 159.764 671.352 159.764C674.724 159.764 677.572 159.171 679.896 157.986C682.221 156.756 683.383 155.115 683.383 153.064C683.383 149.874 680.808 147.983 675.658 147.391C661.713 145.659 652.53 142.993 648.109 139.393C643.734 135.747 641.547 130.688 641.547 124.217C641.547 117.654 644.099 112.231 649.203 107.947C654.307 103.663 661.462 101.521 670.668 101.521C677.96 101.521 683.793 102.957 688.168 105.828C692.543 108.699 695.893 113.302 698.217 119.637ZM774.848 140.896H730.414C730.368 142.127 730.346 143.198 730.346 144.109C730.346 149.031 731.645 152.745 734.242 155.252C736.885 157.758 740.03 159.012 743.676 159.012C750.466 159.012 754.545 155.389 755.912 148.143L774.369 149.51C769.219 165.46 758.76 173.436 742.992 173.436C736.111 173.436 730.255 172.068 725.424 169.334C720.639 166.554 716.674 162.521 713.529 157.234C710.43 151.948 708.881 145.613 708.881 138.23C708.881 127.247 712.003 118.383 718.246 111.639C724.535 104.894 732.602 101.521 742.445 101.521C751.332 101.521 758.943 104.666 765.277 110.955C771.658 117.199 774.848 127.179 774.848 140.896ZM730.346 129.07H754.887C754.249 119.591 750.352 114.852 743.197 114.852C735.541 114.852 731.257 119.591 730.346 129.07Z" fill="white"/>
</svg>
